<svg xmlns="http://www.w3.org/2000/svg" viewBox="0 0 640 512" fill="currentColor">
  <path d="M96 128c-53 0-96 43-96 96v64c0 70.7 57.3 128 128 128 34.6 0 66-14 88.9-36.7l7.1-7.3h192l7.1 7.3C445 402 476.4 416 511 416c70.7 0 129-57.3 129-128v-64c0-53-43-96-96-96h-69.4c-10.9 0-21.6 3.5-30.4 10l-41.5 31.1c-5.6 4.2-12.4 6.5-19.5 6.5H256.6c-7.1 0-13.9-2.3-19.5-6.5l-41.5-31.1c-8.8-6.6-19.5-10-30.4-10H96zm80 120a24 24 0 1 1 0 48 24 24 0 1 1 0-48zm-64 24a24 24 0 1 1 48 0 24 24 0 1 1-48 0zm360-40a24 24 0 1 1 0 48 24 24 0 1 1 0-48zm64 24a24 24 0 1 1-48 0 24 24 0 1 1 48 0z"/>
</svg>

